<?xml version="1.0" encoding="utf-8"?>
<!-- Generator: Adobe Illustrator 22.0.1, SVG Export Plug-In . SVG Version: 6.00 Build 0)  -->
<svg version="1.1" xmlns="http://www.w3.org/2000/svg" xmlns:xlink="http://www.w3.org/1999/xlink" x="0px" y="0px"
	 viewBox="0 0 131.3 142.1" style="enable-background:new 0 0 131.3 142.1;" xml:space="preserve">
<style type="text/css">
	.st0{fill-rule:evenodd;clip-rule:evenodd;fill:#0195D1;}
	.st1{fill-rule:evenodd;clip-rule:evenodd;fill:#4FCAF4;}
	.st2{fill-rule:evenodd;clip-rule:evenodd;fill:#A1E1FA;}
</style>
<g id="Background">
</g>
<g id="Objects">
	<g>
		<g>
			<path class="st0" d="M13.7,38.9C0,61.8-0.8,113.4,50.4,128.9c49.4,14.9,47.5-46.5,5-38.6C12.8,98.2,3.4,69.4,13.7,38.9z"/>
			<path class="st1" d="M8.2,82.7c8.3,23.2,20,37.4,42,43.3c6.8,1.8,15.5,2.9,22-0.3c3.8-1.9,6.5-5,7.2-9.3c0.8-4.8-1-9.7-4.6-13
				c-5.4-5-13.3-5.4-20.1-4.1C33.6,103.2,22.4,101.8,8.2,82.7z"/>
			<path class="st2" d="M24,106.9c7.3,7.8,15.2,14,25.8,16.8c5.4,1.4,20.1,3.9,21.6-4.7c0.5-2.8-0.7-5.6-2.7-7.4
				c-3.9-3.5-10.1-3.5-14.9-2.6C42.6,111,33.3,110.1,24,106.9z"/>
		</g>
		<g>
			<path class="st0" d="M64.3,131.4c26.6,0.4,71.7-24.6,59.5-76.7c-11.8-50.2-64-17.9-35.9,15C116,102.6,95.9,125,64.3,131.4z"/>
			<path class="st1" d="M105,114.3c16-18.8,22.4-36,16.5-58c-1.8-6.8-5.2-14.9-11.3-18.9c-3.5-2.4-7.6-3.1-11.6-1.6
				c-4.6,1.7-7.9,5.8-9,10.5c-1.6,7.1,2,14.2,6.5,19.5C110.1,82,114.4,92.4,105,114.3z"/>
			<path class="st2" d="M118,88.5c3.1-10.2,4.5-20.2,1.7-30.7c-1.5-5.4-6.7-19.4-14.9-16.4c-2.6,1-4.5,3.4-5.1,6.1
				c-1.1,5.1,2,10.5,5.2,14.2C112.3,70.3,116.1,78.8,118,88.5z"/>
		</g>
		<g>
			<path class="st0" d="M119.1,41.3C106.1,18,61.9-8.5,22.9,28.1c-37.6,35.3,16.5,64.3,30.9,23.6C68.2,10.9,97.8,17.2,119.1,41.3z"
				/>
			<path class="st1" d="M83.9,14.7c-24.2-4.4-42.4-1.4-58.5,14.7c-4.9,5-10.3,12-10.8,19.2c-0.3,4.2,1.1,8.1,4.4,10.9
				c3.7,3.1,8.9,4,13.6,2.5c7-2.2,11.3-8.8,13.6-15.4C53.4,26.4,60.3,17.4,83.9,14.7z"/>
			<path class="st2" d="M55.1,16.3c-10.4,2.4-19.8,6.2-27.5,13.9c-4,4-13.4,15.5-6.7,21.1c2.1,1.8,5.2,2.2,7.8,1.4
				c5-1.6,8.1-7,9.7-11.6C42.2,30.3,47.7,22.7,55.1,16.3z"/>
		</g>
	</g>
</g>
</svg>
